<svg xmlns="http://www.w3.org/2000/svg" xmlns:xlink="http://www.w3.org/1999/xlink" width="500" zoomAndPan="magnify" viewBox="0 0 375 374.999991" height="500" preserveAspectRatio="xMidYMid meet" version="1.2"><defs><clipPath id="9b85556b13"><path d="M 23.121094 113.632812 L 152.871094 113.632812 L 152.871094 257 L 23.121094 257 Z M 23.121094 113.632812 "/></clipPath></defs><g id="f160dae013"><g clip-rule="nonzero" clip-path="url(#9b85556b13)"><path style=" stroke:none;fill-rule:evenodd;fill:#5271ff;fill-opacity:1;" d="M 126.785156 113.632812 C 141.117188 113.632812 152.734375 125.25 152.734375 139.582031 C 152.734375 153.910156 141.117188 165.527344 126.785156 165.527344 C 112.457031 165.527344 100.835938 153.910156 100.835938 139.582031 C 100.835938 125.25 112.457031 113.632812 126.785156 113.632812 Z M 137.394531 167.757812 C 139.082031 173.285156 139.9375 179.058594 139.9375 184.839844 C 139.9375 200.773438 133.507812 215.875 122.035156 226.921875 C 121.566406 225.480469 121.019531 224.066406 120.402344 222.691406 C 129.921875 212.914062 135.785156 199.5625 135.785156 184.839844 C 135.785156 179.445312 135.003906 174.101562 133.425781 168.945312 C 134.785156 168.640625 136.109375 168.242188 137.394531 167.757812 Z M 41.019531 226.917969 C 29.558594 215.882812 23.113281 200.769531 23.113281 184.839844 C 23.113281 152.582031 49.265625 126.429688 81.527344 126.429688 C 87.308594 126.429688 93.078125 127.28125 98.609375 128.972656 C 98.125 130.257812 97.726562 131.582031 97.421875 132.941406 C 92.265625 131.367188 86.917969 130.582031 81.527344 130.582031 C 51.558594 130.582031 27.269531 154.875 27.269531 184.839844 C 27.269531 199.046875 32.75 212.535156 42.648438 222.695312 C 42.035156 224.070312 41.488281 225.476562 41.019531 226.917969 Z M 119.976562 240.121094 C 119.976562 223.84375 109.859375 209.925781 95.570312 204.316406 C 101.410156 208.734375 104.882812 215.597656 104.882812 222.949219 L 104.882812 225.035156 C 106.578125 225.820312 107.757812 227.539062 107.757812 229.53125 C 107.757812 232.265625 105.539062 234.484375 102.804688 234.484375 C 100.070312 234.484375 97.851562 232.265625 97.851562 229.53125 C 97.851562 227.539062 99.03125 225.820312 100.726562 225.035156 L 100.726562 222.949219 C 100.726562 212.394531 92.085938 203.75 81.527344 203.75 C 72.605469 203.75 64.8125 209.984375 62.8125 218.65625 C 67.050781 219.945312 69.398438 224.753906 70.5 228.6875 C 72.464844 235.714844 69.460938 237.984375 66.910156 238.695312 C 66.695312 238.757812 66.480469 238.804688 66.273438 238.839844 C 65.785156 239.296875 65.128906 239.578125 64.40625 239.578125 C 62.898438 239.578125 61.675781 238.355469 61.675781 236.847656 C 61.675781 235.339844 62.898438 234.117188 64.40625 234.117188 C 65 234.117188 65.554688 234.308594 66.003906 234.636719 C 66.765625 234.300781 67.457031 233.183594 66.507812 229.789062 C 65.847656 227.425781 63.90625 222.511719 60.816406 222.511719 C 57.730469 222.511719 55.789062 227.425781 55.128906 229.789062 C 54.179688 233.183594 54.871094 234.300781 55.632812 234.636719 C 56.082031 234.308594 56.636719 234.117188 57.230469 234.117188 C 58.738281 234.117188 59.960938 235.339844 59.960938 236.847656 C 59.960938 238.355469 58.738281 239.578125 57.230469 239.578125 C 56.507812 239.578125 55.851562 239.296875 55.363281 238.839844 C 55.15625 238.804688 54.941406 238.757812 54.726562 238.695312 C 52.175781 237.980469 49.171875 235.714844 51.136719 228.6875 C 52.21875 224.824219 54.480469 220.15625 58.558594 218.742188 C 59.617188 212.984375 62.832031 207.839844 67.492188 204.316406 C 53.199219 209.921875 43.074219 223.839844 43.074219 240.121094 C 43.074219 261.355469 119.976562 261.355469 119.976562 240.121094 Z M 63.757812 173.660156 C 63.757812 183.476562 71.714844 191.429688 81.527344 191.429688 C 91.34375 191.429688 99.300781 183.476562 99.300781 173.660156 C 99.300781 163.847656 91.34375 155.890625 81.527344 155.890625 C 71.714844 155.890625 63.757812 163.847656 63.757812 173.660156 Z M 121.035156 124.722656 L 121.035156 133.832031 L 111.929688 133.832031 L 111.929688 145.332031 L 121.035156 145.332031 L 121.035156 154.4375 L 132.535156 154.4375 L 132.535156 145.332031 L 141.644531 145.332031 L 141.644531 133.832031 L 132.535156 133.832031 L 132.535156 124.722656 Z M 121.035156 124.722656 "/></g><g style="fill:#000b6d;fill-opacity:1;"><g transform="translate(164.354708, 200.904554)"><path style="stroke:none" d="M 1.171875 0.484375 C 1.035156 0.273438 0.9375 0.0625 0.875 -0.15625 C 0.8125 -0.375 0.78125 -0.597656 0.78125 -0.828125 L 0.78125 -0.921875 C 0.78125 -0.921875 0.78125 -0.945312 0.78125 -1 C 0.84375 -1.757812 1.109375 -2.269531 1.578125 -2.53125 C 1.890625 -2.738281 2.351562 -2.84375 2.96875 -2.84375 C 3.582031 -2.84375 3.988281 -2.914062 4.1875 -3.0625 C 4.394531 -3.207031 4.515625 -3.378906 4.546875 -3.578125 C 4.628906 -3.960938 4.6875 -4.472656 4.71875 -5.109375 L 4.71875 -22.453125 C 4.6875 -23.097656 4.628906 -23.609375 4.546875 -23.984375 C 4.546875 -24.046875 4.53125 -24.101562 4.5 -24.15625 C 4.46875 -24.21875 4.429688 -24.273438 4.390625 -24.328125 C 4.347656 -24.390625 4.28125 -24.4375 4.1875 -24.46875 C 3.988281 -24.644531 3.582031 -24.734375 2.96875 -24.734375 L 2.703125 -24.734375 C 2.585938 -24.734375 2.484375 -24.738281 2.390625 -24.75 C 2.304688 -24.757812 2.195312 -24.769531 2.0625 -24.78125 C 1.9375 -24.800781 1.816406 -24.835938 1.703125 -24.890625 C 1.585938 -24.953125 1.484375 -25.039062 1.390625 -25.15625 C 1.335938 -25.1875 1.28125 -25.226562 1.21875 -25.28125 C 1.164062 -25.34375 1.125 -25.394531 1.09375 -25.4375 C 1.0625 -25.488281 1.03125 -25.539062 1 -25.59375 C 0.976562 -25.65625 0.957031 -25.707031 0.9375 -25.75 C 0.925781 -25.789062 0.910156 -25.847656 0.890625 -25.921875 C 0.878906 -25.992188 0.863281 -26.046875 0.84375 -26.078125 C 0.832031 -26.109375 0.828125 -26.160156 0.828125 -26.234375 C 0.828125 -26.304688 0.816406 -26.359375 0.796875 -26.390625 C 0.785156 -26.421875 0.78125 -26.460938 0.78125 -26.515625 C 0.78125 -26.578125 0.78125 -26.625 0.78125 -26.65625 L 0.78125 -26.734375 C 0.8125 -27.234375 0.941406 -27.671875 1.171875 -28.046875 C 1.316406 -28.273438 1.519531 -28.457031 1.78125 -28.59375 C 2.050781 -28.726562 2.332031 -28.796875 2.625 -28.796875 L 2.671875 -28.796875 C 4.585938 -28.703125 6.300781 -28.65625 7.8125 -28.65625 L 14.640625 -28.65625 C 17.609375 -28.65625 20.316406 -28.0625 22.765625 -26.875 C 25.210938 -25.644531 27.15625 -23.894531 28.59375 -21.625 C 30.03125 -19.351562 30.75 -16.6875 30.75 -13.625 C 30.75 -10.425781 29.9375 -7.707031 28.3125 -5.46875 C 27.5 -4.351562 26.554688 -3.378906 25.484375 -2.546875 C 24.421875 -1.722656 23.25 -1.035156 21.96875 -0.484375 C 19.4375 0.566406 16.726562 1.09375 13.84375 1.09375 L 7.8125 1.09375 C 7.550781 1.09375 7.289062 1.09375 7.03125 1.09375 C 6.769531 1.09375 6.5 1.09375 6.21875 1.09375 C 5.945312 1.09375 5.671875 1.097656 5.390625 1.109375 C 5.117188 1.128906 4.828125 1.144531 4.515625 1.15625 C 4.210938 1.164062 3.90625 1.171875 3.59375 1.171875 C 3.289062 1.171875 2.984375 1.1875 2.671875 1.21875 L 2.625 1.21875 C 2.007812 1.21875 1.523438 0.972656 1.171875 0.484375 Z M 21.140625 -5.46875 C 22.566406 -7.351562 23.28125 -10.070312 23.28125 -13.625 C 23.28125 -15.875 22.890625 -17.859375 22.109375 -19.578125 C 21.703125 -20.421875 21.21875 -21.171875 20.65625 -21.828125 C 20.101562 -22.484375 19.460938 -23.039062 18.734375 -23.5 C 17.304688 -24.4375 15.578125 -24.90625 13.546875 -24.90625 L 11.234375 -24.859375 L 11.234375 -4.59375 C 11.234375 -3.863281 11.40625 -3.394531 11.75 -3.1875 C 12.25 -2.863281 13.164062 -2.703125 14.5 -2.703125 C 17.5625 -2.703125 19.773438 -3.625 21.140625 -5.46875 Z M 21.140625 -5.46875 "/></g></g><g style="fill:#000b6d;fill-opacity:1;"><g transform="translate(200.66015, 200.904554)"><path style="stroke:none" d="M 6.109375 0.046875 C 5.679688 -0.210938 5.273438 -0.492188 4.890625 -0.796875 C 4.515625 -1.109375 4.15625 -1.4375 3.8125 -1.78125 C 3.476562 -2.132812 3.171875 -2.507812 2.890625 -2.90625 C 2.617188 -3.300781 2.367188 -3.703125 2.140625 -4.109375 C 1.179688 -5.859375 0.703125 -7.691406 0.703125 -9.609375 C 0.703125 -11.992188 1.269531 -14.09375 2.40625 -15.90625 C 3.507812 -17.675781 4.9375 -19.035156 6.6875 -19.984375 C 8.4375 -20.929688 10.195312 -21.40625 11.96875 -21.40625 C 13.050781 -21.40625 14.085938 -21.273438 15.078125 -21.015625 C 16.066406 -20.753906 16.984375 -20.359375 17.828125 -19.828125 C 19.546875 -18.785156 20.875 -17.394531 21.8125 -15.65625 C 22.757812 -13.925781 23.234375 -12.097656 23.234375 -10.171875 C 23.234375 -7.785156 22.664062 -5.691406 21.53125 -3.890625 C 20.394531 -2.109375 18.953125 -0.75 17.203125 0.1875 C 15.460938 1.132812 13.71875 1.609375 11.96875 1.609375 C 9.78125 1.609375 7.828125 1.085938 6.109375 0.046875 Z M 15.375 -4.15625 C 15.519531 -4.445312 15.65625 -4.757812 15.78125 -5.09375 C 15.914062 -5.425781 16.035156 -5.78125 16.140625 -6.15625 C 16.242188 -6.539062 16.332031 -6.941406 16.40625 -7.359375 C 16.476562 -7.785156 16.523438 -8.238281 16.546875 -8.71875 C 16.578125 -9.195312 16.59375 -9.679688 16.59375 -10.171875 C 16.59375 -12.472656 16.171875 -14.335938 15.328125 -15.765625 C 14.597656 -16.992188 13.476562 -17.609375 11.96875 -17.609375 C 11.125 -17.609375 10.429688 -17.453125 9.890625 -17.140625 C 9.359375 -16.835938 8.914062 -16.351562 8.5625 -15.6875 C 8.300781 -15.1875 8.082031 -14.640625 7.90625 -14.046875 C 7.726562 -13.453125 7.585938 -12.789062 7.484375 -12.0625 C 7.390625 -11.332031 7.34375 -10.546875 7.34375 -9.703125 C 7.34375 -7.398438 7.765625 -5.519531 8.609375 -4.0625 C 8.984375 -3.425781 9.429688 -2.953125 9.953125 -2.640625 C 10.484375 -2.335938 11.15625 -2.1875 11.96875 -2.1875 C 12.519531 -2.1875 13 -2.257812 13.40625 -2.40625 C 13.820312 -2.550781 14.1875 -2.757812 14.5 -3.03125 C 14.820312 -3.3125 15.113281 -3.6875 15.375 -4.15625 Z M 15.375 -4.15625 "/></g></g><g style="fill:#000b6d;fill-opacity:1;"><g transform="translate(229.101603, 200.904554)"><path style="stroke:none" d="M 3.5 -1.578125 C 1.632812 -3.671875 0.703125 -6.453125 0.703125 -9.921875 C 0.753906 -12.097656 1.289062 -14.046875 2.3125 -15.765625 C 2.632812 -16.347656 3.003906 -16.882812 3.421875 -17.375 C 3.847656 -17.875 4.304688 -18.328125 4.796875 -18.734375 C 5.296875 -19.148438 5.835938 -19.515625 6.421875 -19.828125 C 7.703125 -20.585938 9.085938 -21.070312 10.578125 -21.28125 C 11.035156 -21.332031 11.53125 -21.375 12.0625 -21.40625 C 12.726562 -21.40625 13.363281 -21.359375 13.96875 -21.265625 C 14.582031 -21.179688 15.171875 -21.050781 15.734375 -20.875 C 16.304688 -20.707031 16.859375 -20.492188 17.390625 -20.234375 C 18.234375 -19.796875 18.878906 -19.1875 19.328125 -18.40625 C 19.785156 -17.632812 20.015625 -16.753906 20.015625 -15.765625 C 20.015625 -14.609375 19.660156 -13.59375 18.953125 -12.71875 C 18.203125 -11.75 17.203125 -11.265625 15.953125 -11.265625 C 15.160156 -11.265625 14.472656 -11.484375 13.890625 -11.921875 C 13.191406 -12.421875 12.84375 -12.960938 12.84375 -13.546875 C 12.84375 -13.742188 12.863281 -13.921875 12.90625 -14.078125 C 12.945312 -14.242188 13.003906 -14.363281 13.078125 -14.4375 C 13.148438 -14.507812 13.21875 -14.5625 13.28125 -14.59375 C 13.34375 -14.625 13.410156 -14.648438 13.484375 -14.671875 C 13.554688 -14.703125 13.59375 -14.734375 13.59375 -14.765625 C 13.789062 -14.910156 13.976562 -15.113281 14.15625 -15.375 C 14.1875 -15.46875 14.210938 -15.554688 14.234375 -15.640625 C 14.265625 -15.722656 14.28125 -15.828125 14.28125 -15.953125 C 14.28125 -16.035156 14.28125 -16.113281 14.28125 -16.1875 C 14.28125 -16.257812 14.269531 -16.332031 14.25 -16.40625 C 14.238281 -16.476562 14.21875 -16.539062 14.1875 -16.59375 C 14.164062 -16.65625 14.140625 -16.707031 14.109375 -16.75 C 14.078125 -16.789062 14.046875 -16.832031 14.015625 -16.875 C 13.992188 -16.925781 13.957031 -16.960938 13.90625 -16.984375 C 13.863281 -17.015625 13.816406 -17.0625 13.765625 -17.125 C 13.523438 -17.269531 13.265625 -17.382812 12.984375 -17.46875 C 12.710938 -17.5625 12.390625 -17.609375 12.015625 -17.609375 C 11.660156 -17.609375 11.335938 -17.59375 11.046875 -17.5625 C 9.796875 -17.351562 8.925781 -16.753906 8.4375 -15.765625 C 7.707031 -14.253906 7.34375 -12.347656 7.34375 -10.046875 C 7.34375 -7.835938 7.820312 -6.03125 8.78125 -4.625 C 9.6875 -3.375 10.863281 -2.75 12.3125 -2.75 C 12.664062 -2.75 13.003906 -2.769531 13.328125 -2.8125 C 13.648438 -2.863281 13.945312 -2.9375 14.21875 -3.03125 C 14.5 -3.132812 14.753906 -3.257812 14.984375 -3.40625 C 15.710938 -3.84375 16.394531 -4.539062 17.03125 -5.5 C 17.175781 -5.738281 17.375 -5.921875 17.625 -6.046875 C 17.875 -6.179688 18.128906 -6.25 18.390625 -6.25 C 18.679688 -6.25 19.015625 -6.160156 19.390625 -5.984375 C 19.710938 -5.835938 19.96875 -5.601562 20.15625 -5.28125 C 20.351562 -4.96875 20.453125 -4.632812 20.453125 -4.28125 C 20.453125 -3.988281 20.347656 -3.679688 20.140625 -3.359375 L 20.140625 -3.3125 L 20.09375 -3.3125 C 19.050781 -1.800781 17.742188 -0.609375 16.171875 0.265625 C 14.597656 1.160156 12.976562 1.609375 11.3125 1.609375 C 8.019531 1.609375 5.414062 0.546875 3.5 -1.578125 Z M 3.5 -1.578125 "/></g></g><g style="fill:#000b6d;fill-opacity:1;"><g transform="translate(254.353775, 200.904554)"><path style="stroke:none" d="M 1.171875 0.484375 C 1.035156 0.273438 0.9375 0.0625 0.875 -0.15625 C 0.8125 -0.375 0.78125 -0.597656 0.78125 -0.828125 L 0.78125 -0.921875 C 0.78125 -0.921875 0.78125 -0.945312 0.78125 -1 C 0.84375 -1.757812 1.109375 -2.269531 1.578125 -2.53125 C 1.890625 -2.738281 2.351562 -2.84375 2.96875 -2.84375 C 3.582031 -2.84375 3.988281 -2.914062 4.1875 -3.0625 C 4.394531 -3.207031 4.515625 -3.378906 4.546875 -3.578125 C 4.628906 -3.960938 4.6875 -4.472656 4.71875 -5.109375 L 4.71875 -22.453125 C 4.6875 -23.097656 4.628906 -23.609375 4.546875 -23.984375 C 4.546875 -24.046875 4.53125 -24.101562 4.5 -24.15625 C 4.46875 -24.21875 4.429688 -24.273438 4.390625 -24.328125 C 4.347656 -24.390625 4.28125 -24.4375 4.1875 -24.46875 C 3.988281 -24.644531 3.582031 -24.734375 2.96875 -24.734375 L 2.703125 -24.734375 C 2.585938 -24.734375 2.484375 -24.738281 2.390625 -24.75 C 2.304688 -24.757812 2.195312 -24.769531 2.0625 -24.78125 C 1.9375 -24.800781 1.816406 -24.835938 1.703125 -24.890625 C 1.585938 -24.953125 1.484375 -25.039062 1.390625 -25.15625 C 1.335938 -25.1875 1.28125 -25.226562 1.21875 -25.28125 C 1.164062 -25.34375 1.125 -25.394531 1.09375 -25.4375 C 1.0625 -25.488281 1.03125 -25.539062 1 -25.59375 C 0.976562 -25.65625 0.957031 -25.707031 0.9375 -25.75 C 0.925781 -25.789062 0.910156 -25.847656 0.890625 -25.921875 C 0.878906 -25.992188 0.863281 -26.046875 0.84375 -26.078125 C 0.832031 -26.109375 0.828125 -26.160156 0.828125 -26.234375 C 0.828125 -26.304688 0.816406 -26.359375 0.796875 -26.390625 C 0.785156 -26.421875 0.78125 -26.460938 0.78125 -26.515625 C 0.78125 -26.578125 0.78125 -26.625 0.78125 -26.65625 L 0.78125 -26.734375 C 0.8125 -27.234375 0.941406 -27.671875 1.171875 -28.046875 C 1.316406 -28.273438 1.519531 -28.457031 1.78125 -28.59375 C 2.050781 -28.726562 2.332031 -28.796875 2.625 -28.796875 L 2.671875 -28.796875 C 4.585938 -28.703125 6.300781 -28.65625 7.8125 -28.65625 L 21.53125 -28.65625 C 21.851562 -28.65625 22.148438 -28.609375 22.421875 -28.515625 C 22.703125 -28.429688 22.960938 -28.273438 23.203125 -28.046875 C 23.578125 -27.671875 23.765625 -27.160156 23.765625 -26.515625 L 23.890625 -20.40625 C 23.890625 -19.726562 23.585938 -19.203125 22.984375 -18.828125 C 22.546875 -18.566406 22.09375 -18.4375 21.625 -18.4375 C 21.539062 -18.4375 21.460938 -18.4375 21.390625 -18.4375 C 21.316406 -18.4375 21.234375 -18.441406 21.140625 -18.453125 C 21.054688 -18.472656 20.976562 -18.488281 20.90625 -18.5 C 20.832031 -18.519531 20.757812 -18.539062 20.6875 -18.5625 C 20.613281 -18.59375 20.53125 -18.625 20.4375 -18.65625 C 20.351562 -18.6875 20.285156 -18.710938 20.234375 -18.734375 C 19.648438 -19.023438 19.296875 -19.492188 19.171875 -20.140625 C 18.972656 -21.503906 18.742188 -22.523438 18.484375 -23.203125 C 18.273438 -23.722656 18.007812 -24.097656 17.6875 -24.328125 C 17.3125 -24.566406 16.742188 -24.703125 15.984375 -24.734375 L 11.234375 -24.734375 L 11.234375 -15.8125 L 18.21875 -15.8125 C 18.738281 -15.726562 19.144531 -15.453125 19.4375 -14.984375 C 19.675781 -14.609375 19.796875 -14.1875 19.796875 -13.71875 C 19.796875 -13.601562 19.785156 -13.492188 19.765625 -13.390625 C 19.753906 -13.285156 19.734375 -13.179688 19.703125 -13.078125 C 19.671875 -12.984375 19.632812 -12.882812 19.59375 -12.78125 C 19.550781 -12.675781 19.5 -12.582031 19.4375 -12.5 C 19.289062 -12.257812 19.085938 -12.070312 18.828125 -11.9375 C 18.566406 -11.8125 18.304688 -11.75 18.046875 -11.75 L 11.234375 -11.75 L 11.234375 -4.625 C 11.285156 -4.101562 11.34375 -3.679688 11.40625 -3.359375 C 11.4375 -3.273438 11.550781 -3.175781 11.75 -3.0625 C 11.976562 -2.882812 12.457031 -2.8125 13.1875 -2.84375 L 17.21875 -2.84375 C 17.65625 -2.875 18.015625 -2.914062 18.296875 -2.96875 C 18.585938 -3.03125 18.804688 -3.101562 18.953125 -3.1875 C 19.304688 -3.394531 19.585938 -3.71875 19.796875 -4.15625 C 19.910156 -4.414062 20.0625 -4.800781 20.25 -5.3125 C 20.4375 -5.820312 20.632812 -6.425781 20.84375 -7.125 L 20.84375 -7.171875 L 20.875 -7.203125 C 21.082031 -7.734375 21.429688 -8.109375 21.921875 -8.328125 C 22.421875 -8.546875 22.960938 -8.609375 23.546875 -8.515625 L 23.59375 -8.515625 C 23.820312 -8.460938 24.035156 -8.382812 24.234375 -8.28125 C 24.441406 -8.175781 24.632812 -8.066406 24.8125 -7.953125 C 25.039062 -7.742188 25.222656 -7.492188 25.359375 -7.203125 C 25.492188 -6.910156 25.546875 -6.609375 25.515625 -6.296875 L 25.515625 -6.25 L 24.640625 -0.75 L 24.640625 -0.703125 L 24.59375 -0.65625 C 24.539062 -0.363281 24.453125 -0.101562 24.328125 0.125 C 24.210938 0.363281 24.023438 0.570312 23.765625 0.75 C 23.410156 0.976562 22.914062 1.09375 22.28125 1.09375 L 7.859375 1.09375 C 7.078125 1.09375 6.253906 1.097656 5.390625 1.109375 C 4.535156 1.128906 3.628906 1.164062 2.671875 1.21875 L 2.625 1.21875 C 2.007812 1.21875 1.523438 0.972656 1.171875 0.484375 Z M 1.171875 0.484375 "/></g></g><g style="fill:#000b6d;fill-opacity:1;"><g transform="translate(284.804905, 200.904554)"><path style="stroke:none" d="M 2.359375 -0.171875 C 1.046875 -1.367188 0.390625 -2.867188 0.390625 -4.671875 C 0.390625 -6.890625 1.148438 -8.566406 2.671875 -9.703125 C 4.035156 -10.722656 5.648438 -11.378906 7.515625 -11.671875 C 9.003906 -11.929688 10.882812 -12.132812 13.15625 -12.28125 L 13.15625 -14.671875 C 13.15625 -15.285156 13.085938 -15.789062 12.953125 -16.1875 C 12.816406 -16.582031 12.617188 -16.910156 12.359375 -17.171875 C 12.160156 -17.398438 11.84375 -17.585938 11.40625 -17.734375 C 10.96875 -17.878906 10.414062 -17.953125 9.75 -17.953125 C 9.507812 -17.953125 9.296875 -17.929688 9.109375 -17.890625 C 8.921875 -17.847656 8.738281 -17.78125 8.5625 -17.6875 C 8.382812 -17.601562 8.222656 -17.503906 8.078125 -17.390625 C 7.878906 -17.210938 7.726562 -17.015625 7.625 -16.796875 C 7.519531 -16.578125 7.46875 -16.304688 7.46875 -15.984375 C 7.46875 -15.753906 7.515625 -15.582031 7.609375 -15.46875 C 7.742188 -15.226562 7.898438 -15.035156 8.078125 -14.890625 C 8.109375 -14.890625 8.175781 -14.875 8.28125 -14.84375 C 8.382812 -14.820312 8.472656 -14.78125 8.546875 -14.71875 C 8.617188 -14.664062 8.691406 -14.550781 8.765625 -14.375 C 8.835938 -14.195312 8.875 -13.976562 8.875 -13.71875 C 8.875 -13.457031 8.804688 -13.207031 8.671875 -12.96875 C 8.535156 -12.738281 8.425781 -12.585938 8.34375 -12.515625 C 8.257812 -12.441406 8.113281 -12.332031 7.90625 -12.1875 C 7.320312 -11.75 6.648438 -11.53125 5.890625 -11.53125 C 4.671875 -11.53125 3.695312 -11.984375 2.96875 -12.890625 C 2.300781 -13.734375 1.96875 -14.722656 1.96875 -15.859375 C 1.96875 -17.804688 2.84375 -19.25 4.59375 -20.1875 C 6.101562 -21 7.90625 -21.40625 10 -21.40625 C 10.84375 -21.40625 11.644531 -21.351562 12.40625 -21.25 C 13.164062 -21.144531 13.878906 -20.976562 14.546875 -20.75 C 15.210938 -20.519531 15.828125 -20.226562 16.390625 -19.875 C 17.023438 -19.5 17.550781 -19.007812 17.96875 -18.40625 C 18.394531 -17.8125 18.703125 -17.144531 18.890625 -16.40625 C 19.078125 -15.664062 19.171875 -14.84375 19.171875 -13.9375 L 19.171875 -3.796875 C 19.171875 -3.679688 19.175781 -3.570312 19.1875 -3.46875 C 19.207031 -3.363281 19.238281 -3.269531 19.28125 -3.1875 C 19.332031 -3.101562 19.378906 -3.007812 19.421875 -2.90625 C 19.460938 -2.800781 19.515625 -2.691406 19.578125 -2.578125 C 19.660156 -2.460938 19.753906 -2.378906 19.859375 -2.328125 C 19.960938 -2.285156 20.128906 -2.265625 20.359375 -2.265625 C 20.847656 -2.265625 21.253906 -2.132812 21.578125 -1.875 C 21.929688 -1.550781 22.109375 -1.085938 22.109375 -0.484375 C 22.109375 0.421875 21.582031 1.019531 20.53125 1.3125 C 19.894531 1.507812 19.253906 1.609375 18.609375 1.609375 C 17.265625 1.609375 16.070312 1.21875 15.03125 0.4375 C 14.5625 0.0820312 14.179688 -0.320312 13.890625 -0.78125 C 13.742188 -0.632812 13.585938 -0.492188 13.421875 -0.359375 C 13.265625 -0.234375 13.109375 -0.113281 12.953125 0 C 12.796875 0.113281 12.628906 0.210938 12.453125 0.296875 C 12.273438 0.390625 12.085938 0.492188 11.890625 0.609375 C 10.484375 1.273438 8.96875 1.609375 7.34375 1.609375 C 5.300781 1.609375 3.640625 1.015625 2.359375 -0.171875 Z M 10.921875 -3.53125 C 11.097656 -3.625 11.265625 -3.726562 11.421875 -3.84375 C 11.585938 -3.957031 11.734375 -4.078125 11.859375 -4.203125 C 11.992188 -4.335938 12.117188 -4.484375 12.234375 -4.640625 C 12.347656 -4.804688 12.445312 -4.976562 12.53125 -5.15625 C 12.945312 -5.851562 13.15625 -6.625 13.15625 -7.46875 L 13.15625 -8.78125 C 10.882812 -8.519531 9.28125 -8.113281 8.34375 -7.5625 C 7.4375 -7.007812 6.984375 -6.09375 6.984375 -4.8125 C 6.984375 -4.050781 7.109375 -3.546875 7.359375 -3.296875 C 7.609375 -3.046875 8.066406 -2.921875 8.734375 -2.921875 C 9.140625 -2.921875 9.523438 -2.972656 9.890625 -3.078125 C 10.253906 -3.179688 10.597656 -3.332031 10.921875 -3.53125 Z M 10.921875 -3.53125 "/></g></g><g style="fill:#000b6d;fill-opacity:1;"><g transform="translate(311.192986, 200.904554)"><path style="stroke:none" d="M 3.3125 0.265625 C 1.476562 -0.753906 0.5625 -2.226562 0.5625 -4.15625 C 0.5625 -5.289062 0.925781 -6.222656 1.65625 -6.953125 C 2.007812 -7.328125 2.425781 -7.609375 2.90625 -7.796875 C 3.382812 -7.984375 3.882812 -8.078125 4.40625 -8.078125 C 4.582031 -8.078125 4.75 -8.0625 4.90625 -8.03125 C 5.070312 -8.007812 5.234375 -7.972656 5.390625 -7.921875 C 5.554688 -7.878906 5.710938 -7.820312 5.859375 -7.75 C 6.003906 -7.675781 6.148438 -7.582031 6.296875 -7.46875 C 6.316406 -7.46875 6.378906 -7.429688 6.484375 -7.359375 C 6.585938 -7.285156 6.660156 -7.226562 6.703125 -7.1875 C 6.742188 -7.144531 6.804688 -7.078125 6.890625 -6.984375 C 6.984375 -6.898438 7.050781 -6.8125 7.09375 -6.71875 C 7.144531 -6.632812 7.191406 -6.523438 7.234375 -6.390625 C 7.273438 -6.265625 7.296875 -6.128906 7.296875 -5.984375 C 7.296875 -5.722656 7.265625 -5.503906 7.203125 -5.328125 C 7.148438 -5.148438 7.085938 -5.039062 7.015625 -5 C 6.941406 -4.957031 6.84375 -4.898438 6.71875 -4.828125 C 6.601562 -4.753906 6.535156 -4.703125 6.515625 -4.671875 C 6.367188 -4.523438 6.296875 -4.28125 6.296875 -3.9375 C 6.296875 -3.46875 6.523438 -3.085938 6.984375 -2.796875 C 7.597656 -2.390625 8.5625 -2.1875 9.875 -2.1875 C 10.976562 -2.1875 11.820312 -2.40625 12.40625 -2.84375 C 12.90625 -3.21875 13.15625 -3.769531 13.15625 -4.5 C 13.15625 -4.726562 13.125 -4.921875 13.0625 -5.078125 C 13 -5.242188 12.910156 -5.398438 12.796875 -5.546875 C 12.617188 -5.722656 12.425781 -5.875 12.21875 -6 C 12.019531 -6.132812 11.789062 -6.257812 11.53125 -6.375 C 11.238281 -6.488281 10.867188 -6.617188 10.421875 -6.765625 C 9.972656 -6.910156 9.46875 -7.070312 8.90625 -7.25 C 8.175781 -7.457031 7.503906 -7.671875 6.890625 -7.890625 C 6.285156 -8.109375 5.75 -8.316406 5.28125 -8.515625 C 4.726562 -8.753906 4.226562 -9.050781 3.78125 -9.40625 C 3.332031 -9.769531 2.914062 -10.203125 2.53125 -10.703125 C 1.75 -11.691406 1.359375 -12.972656 1.359375 -14.546875 C 1.359375 -16.035156 1.820312 -17.316406 2.75 -18.390625 C 3.1875 -18.910156 3.6875 -19.359375 4.25 -19.734375 C 4.820312 -20.117188 5.457031 -20.441406 6.15625 -20.703125 C 6.59375 -20.847656 7.035156 -20.972656 7.484375 -21.078125 C 7.941406 -21.179688 8.40625 -21.257812 8.875 -21.3125 C 9.363281 -21.375 9.859375 -21.40625 10.359375 -21.40625 C 12.273438 -21.40625 13.945312 -21 15.375 -20.1875 C 17.007812 -19.21875 17.828125 -17.878906 17.828125 -16.171875 C 17.828125 -15.117188 17.488281 -14.210938 16.8125 -13.453125 C 16.113281 -12.640625 15.210938 -12.234375 14.109375 -12.234375 C 13.410156 -12.234375 12.785156 -12.4375 12.234375 -12.84375 C 12.203125 -12.84375 12.132812 -12.878906 12.03125 -12.953125 C 11.9375 -13.023438 11.863281 -13.082031 11.8125 -13.125 C 11.769531 -13.164062 11.703125 -13.226562 11.609375 -13.3125 C 11.523438 -13.40625 11.460938 -13.492188 11.421875 -13.578125 C 11.378906 -13.671875 11.335938 -13.78125 11.296875 -13.90625 C 11.253906 -14.039062 11.234375 -14.179688 11.234375 -14.328125 C 11.234375 -14.585938 11.269531 -14.804688 11.34375 -14.984375 C 11.414062 -15.160156 11.488281 -15.269531 11.5625 -15.3125 C 11.632812 -15.351562 11.710938 -15.390625 11.796875 -15.421875 C 11.878906 -15.453125 11.9375 -15.484375 11.96875 -15.515625 C 12.113281 -15.660156 12.257812 -15.832031 12.40625 -16.03125 C 12.46875 -16.09375 12.5 -16.195312 12.5 -16.34375 C 12.46875 -16.75 12.25 -17.066406 11.84375 -17.296875 C 11.289062 -17.617188 10.617188 -17.78125 9.828125 -17.78125 L 9.3125 -17.734375 C 8.957031 -17.703125 8.632812 -17.644531 8.34375 -17.5625 C 8.050781 -17.476562 7.773438 -17.347656 7.515625 -17.171875 C 7.015625 -16.878906 6.765625 -16.484375 6.765625 -15.984375 C 6.765625 -15.671875 6.796875 -15.410156 6.859375 -15.203125 C 6.921875 -14.992188 6.992188 -14.816406 7.078125 -14.671875 C 7.160156 -14.585938 7.242188 -14.5 7.328125 -14.40625 C 7.421875 -14.320312 7.539062 -14.238281 7.6875 -14.15625 C 7.832031 -14.070312 8.007812 -13.984375 8.21875 -13.890625 C 8.53125 -13.742188 8.957031 -13.578125 9.5 -13.390625 C 10.039062 -13.203125 10.691406 -12.988281 11.453125 -12.75 C 11.828125 -12.601562 12.1875 -12.472656 12.53125 -12.359375 C 12.882812 -12.242188 13.222656 -12.128906 13.546875 -12.015625 C 13.867188 -11.898438 14.164062 -11.78125 14.4375 -11.65625 C 14.71875 -11.539062 14.972656 -11.425781 15.203125 -11.3125 C 16.253906 -10.820312 17.082031 -10.140625 17.6875 -9.265625 C 18.332031 -8.359375 18.65625 -7.207031 18.65625 -5.8125 C 18.65625 -5.113281 18.546875 -4.4375 18.328125 -3.78125 C 18.109375 -3.125 17.796875 -2.503906 17.390625 -1.921875 C 16.984375 -1.335938 16.5 -0.828125 15.9375 -0.390625 C 15.382812 0.046875 14.757812 0.410156 14.0625 0.703125 C 13.039062 1.160156 11.921875 1.453125 10.703125 1.578125 C 10.328125 1.597656 9.9375 1.609375 9.53125 1.609375 C 6.988281 1.609375 4.914062 1.160156 3.3125 0.265625 Z M 3.3125 0.265625 "/></g></g><g style="fill:#000b6d;fill-opacity:1;"><g transform="translate(335.047108, 200.904554)"><path style="stroke:none" d="M 5.859375 0.046875 C 4.160156 -0.972656 2.878906 -2.382812 2.015625 -4.1875 C 1.140625 -5.9375 0.703125 -7.875 0.703125 -10 C 0.703125 -11.894531 1.140625 -13.71875 2.015625 -15.46875 C 2.910156 -17.21875 4.175781 -18.644531 5.8125 -19.75 C 7.46875 -20.851562 9.375 -21.40625 11.53125 -21.40625 C 14.414062 -21.40625 16.660156 -20.648438 18.265625 -19.140625 C 19.867188 -17.617188 20.785156 -15.59375 21.015625 -13.0625 L 21.015625 -12.96875 C 21.015625 -11.632812 20.59375 -10.675781 19.75 -10.09375 C 19.050781 -9.625 18.085938 -9.390625 16.859375 -9.390625 L 7.390625 -9.390625 C 7.503906 -7.410156 7.984375 -5.835938 8.828125 -4.671875 C 9.722656 -3.390625 11.164062 -2.75 13.15625 -2.75 C 13.351562 -2.75 13.550781 -2.753906 13.75 -2.765625 C 13.957031 -2.785156 14.15625 -2.816406 14.34375 -2.859375 C 14.539062 -2.898438 14.71875 -2.941406 14.875 -2.984375 C 15.03125 -3.035156 15.179688 -3.097656 15.328125 -3.171875 C 15.472656 -3.242188 15.617188 -3.320312 15.765625 -3.40625 C 16.492188 -3.84375 17.207031 -4.628906 17.90625 -5.765625 L 17.953125 -5.890625 L 18.046875 -5.984375 C 18.222656 -6.128906 18.410156 -6.253906 18.609375 -6.359375 C 18.816406 -6.460938 19.035156 -6.515625 19.265625 -6.515625 C 19.347656 -6.515625 19.445312 -6.5 19.5625 -6.46875 C 19.6875 -6.4375 19.796875 -6.40625 19.890625 -6.375 C 19.992188 -6.34375 20.085938 -6.304688 20.171875 -6.265625 C 20.265625 -6.222656 20.34375 -6.1875 20.40625 -6.15625 C 21.007812 -5.75 21.3125 -5.179688 21.3125 -4.453125 C 21.3125 -4.273438 21.289062 -4.109375 21.25 -3.953125 C 21.207031 -3.796875 21.144531 -3.628906 21.0625 -3.453125 C 20.5625 -2.691406 19.988281 -1.988281 19.34375 -1.34375 C 18.707031 -0.707031 18.007812 -0.171875 17.25 0.265625 C 15.707031 1.160156 13.960938 1.609375 12.015625 1.609375 C 9.628906 1.609375 7.578125 1.085938 5.859375 0.046875 Z M 13.375 -13.234375 C 13.894531 -13.234375 14.226562 -13.289062 14.375 -13.40625 C 14.519531 -13.53125 14.609375 -13.738281 14.640625 -14.03125 C 14.640625 -14.195312 14.628906 -14.351562 14.609375 -14.5 C 14.597656 -14.644531 14.578125 -14.789062 14.546875 -14.9375 C 14.515625 -15.082031 14.484375 -15.21875 14.453125 -15.34375 C 14.429688 -15.476562 14.394531 -15.601562 14.34375 -15.71875 C 14.300781 -15.84375 14.25 -15.960938 14.1875 -16.078125 C 14.132812 -16.191406 14.070312 -16.300781 14 -16.40625 C 13.925781 -16.507812 13.847656 -16.617188 13.765625 -16.734375 C 13.503906 -17.054688 13.195312 -17.296875 12.84375 -17.453125 C 12.488281 -17.609375 12.050781 -17.6875 11.53125 -17.6875 C 10.394531 -17.6875 9.445312 -17.238281 8.6875 -16.34375 C 8.082031 -15.550781 7.675781 -14.515625 7.46875 -13.234375 Z M 13.375 -13.234375 "/></g></g></g></svg>